<svg xmlns="http://www.w3.org/2000/svg" viewBox="0 0 100 100">
    <g id="body" fill="#61DAFB">
        <path
	 d="M90.147,81.156c-0.002-12.683-8.91-23.274-20.808-25.879c2.137,2.164,3.538,5.053,3.811,8.258   c2.889,0.647,5.055,3.229,5.055,6.309c0,3.567-2.902,6.47-6.47,6.47s-6.47-2.902-6.47-6.47c0-3.023,2.089-5.563,4.897-6.269   c-0.44-4.146-3.324-7.571-7.181-8.808H36.345c-4.093,1.313-7.081,5.093-7.224,9.581c0.576,0.335,1.042,0.853,1.328,1.479   c2.126,1.004,4.005,3.115,5.442,6.123c0.241,0.507,0.272,1.078,0.095,1.6c0.862,2.22,1.355,4.644,1.355,6.681   c0,2.854,0,5.552-3.11,6.245c-0.337,0.28-0.758,0.434-1.202,0.434h-2.078c-1.043,0-1.892-0.849-1.892-1.891l0.007-0.134   c0.07-0.977,0.897-1.757,1.885-1.757h2.078c0.212,0,0.421,0.036,0.621,0.106c0.125-0.036,0.166-0.064,0.166-0.064   c0.232-0.412,0.232-2.119,0.232-2.939c0-1.653-0.414-3.65-1.14-5.509c-0.376-0.214-0.679-0.538-0.867-0.929   c-1.261-2.639-2.975-4.343-4.368-4.343c-1.424,0-3.223,1.842-4.477,4.583c-0.205,0.447-0.564,0.812-1.007,1.027   c-0.655,1.776-1.015,3.604-1.015,5.17c0,0.688,0,2.518,0.264,2.945c0.003,0,0.061,0.036,0.226,0.077   c0.215-0.082,0.446-0.125,0.677-0.125h2.082c0.961,0,1.766,0.725,1.875,1.671l0.011,0.021l0.004,0.125   c0,1.116-0.848,1.965-1.89,1.965h-2.082c-0.413,0-0.813-0.138-1.141-0.389c-1.188-0.224-2.027-0.749-2.559-1.603   c-0.642-1.033-0.759-2.389-0.759-4.688c0-2.019,0.465-4.341,1.312-6.559c-0.124-0.475-0.083-0.97,0.124-1.417   c0.882-1.927,2.002-3.577,3.241-4.771c0.681-0.655,1.412-1.183,2.177-1.568c0.289-0.674,0.79-1.225,1.401-1.574   c0.086-3.429,1.464-6.537,3.669-8.862C18.337,58.395,9.853,68.78,9.853,81.156C9.853,94.351,19.495,95,32.122,95   c1.376,0,2.79-0.008,4.232-0.008h27.295c1.435,0,2.85,0.008,4.227,0.008C80.501,95,90.147,94.353,90.147,81.156z M66.92,83.927   c0,0.344-0.311,0.622-0.696,0.622h-3.782v3.782c0,0.385-0.28,0.697-0.622,0.697h-3.733c-0.344,0-0.622-0.313-0.622-0.697v-3.782   h-3.783c-0.383,0-0.695-0.278-0.695-0.622v-3.732c0-0.345,0.313-0.622,0.695-0.622h3.783V75.79c0-0.385,0.278-0.697,0.622-0.697   h3.733c0.342,0,0.622,0.313,0.622,0.697v3.782h3.782c0.386,0,0.696,0.277,0.696,0.622V83.927z"/>
<circle
	 cx="71.735"
	 cy="69.844"
	 r="2.986"/>
</g>
<g id="body" fill="#61DAFB">
     <circle
	 cx="49.999"
	 cy="27.893"
	 r="22.893"/>
    </g>
    <g id="slash">
     <path d="m57 17 -9.425 22.475-4.875-0.025 9.425-22.475z"/>
    </g>
</svg>
